<?xml version="1.0" ?><!DOCTYPE svg  PUBLIC '-//W3C//DTD SVG 1.1//EN'  'http://www.w3.org/Graphics/SVG/1.1/DTD/svg11.dtd'><svg width="512px" height="512px" viewBox="0 0 512 512" style="enable-background:new 0 0 512 512;" version="1.1" xml:space="preserve" xmlns="http://www.w3.org/2000/svg" xmlns:xlink="http://www.w3.org/1999/xlink"><g id="_x34_78_x2C__cloud_x2C__arrow_x2C__book_x2C__notebook"><g><path d="M170,221v-99.01V31h160v48.29V211H185c-6.53,0-12.07,4.18-14.13,10H170z" style="fill:#F7D794;"/><path d="M179.5,131.615v-90.99H330V31H170v90.99V221h0.87c1.447-4.087,4.613-7.358,8.63-8.948V131.615z" style="fill:#E2BF7F;"/><path d="M330,221v20H185c-8.28,0-15-6.72-15-15c0-1.76,0.32-3.43,0.87-5c2.06-5.82,7.6-10,14.13-10h145V221    z" style="fill:#E2D3B5;"/><path d="M174.375,234.125c0-1.76,0.32-3.43,0.87-5c2.06-5.82,7.6-10,14.13-10H330V211H185    c-6.53,0-12.07,4.18-14.13,10c-0.55,1.57-0.87,3.24-0.87,5c0,4.254,1.782,8.087,4.63,10.818    C174.471,235.943,174.375,235.046,174.375,234.125z" style="fill:#CEB995;"/><path d="M185,241h145v-20v-10V79.29c36.11,15.62,61.38,51.65,61.38,93.62c0,5.8-0.5,11.49-1.43,17.02    c0.479-0.01,0.95-0.03,1.43-0.03c46.74,0,84.62,38.02,84.62,84.92c0,45.989-34.53,84.729-80,86.18h-46h-4.26H166.01H96    c-35.54-10.06-60-47.28-60-86.18c0-41.1,29.09-75.38,67.74-83.23c-0.02-0.56-0.05-1.13-0.05-1.69c0-37.06,29.57-67.17,66.31-67.91    V221h0.87c-0.55,1.57-0.87,3.24-0.87,5C170,234.28,176.72,241,185,241z" style="fill:#E0F8FF;"/><g><g><g><path d="M45,285.32c0-41.1,29.09-75.38,67.74-83.23c-0.02-0.56-0.05-1.13-0.05-1.69       c0-33.978,24.861-62.095,57.31-67.11V121.99c-36.74,0.74-66.31,30.85-66.31,67.91c0,0.56,0.03,1.13,0.05,1.69       C65.09,199.44,36,233.72,36,274.82c0,25.26,10.322,49.804,27.288,66.67C51.746,325.684,45,305.736,45,285.32z" style="fill:#CCE5E4;"/></g></g></g><path d="M210,456H70c-2.761,0-5-2.238-5-5s2.239-5,5-5h135v-35.657l-22.227,14.817c-2.298,1.531-5.402,0.911-6.934-1.387    c-1.532-2.298-0.911-5.402,1.387-6.934l30-20c1.533-1.022,3.506-1.118,5.133-0.248c1.625,0.87,2.641,2.564,2.641,4.408v50    C215,453.762,212.761,456,210,456z"/><path d="M239.996,426.001c-0.953,0-1.917-0.272-2.769-0.841l-30-20c-2.298-1.531-2.918-4.636-1.387-6.934    c1.531-2.299,4.636-2.919,6.934-1.387l30,20c2.298,1.531,2.918,4.636,1.387,6.934    C243.197,425.219,241.611,426.001,239.996,426.001z"/><path d="M470,456H330c-2.762,0-5-2.238-5-5v-50c0-1.844,1.015-3.538,2.641-4.408c1.625-0.869,3.597-0.775,5.133,0.248l30,20    c2.298,1.531,2.919,4.636,1.387,6.934c-1.531,2.298-4.636,2.919-6.934,1.387L335,410.343V446h135c2.762,0,5,2.238,5,5    S472.762,456,470,456z"/><path d="M300.005,426.001c-1.616,0-3.201-0.782-4.165-2.228c-1.532-2.298-0.911-5.402,1.387-6.934l30-20    c2.298-1.532,5.401-0.911,6.934,1.387s0.911,5.402-1.387,6.934l-30,20C301.921,425.729,300.958,426.001,300.005,426.001z"/><path d="M270,486c-2.762,0-5-2.238-5-5v-90c0-2.762,2.238-5,5-5s5,2.238,5,5v90C275,483.762,272.762,486,270,486z"/><path d="M396,366H96c-0.46,0-0.918-0.063-1.362-0.189C57.764,355.374,31,317.106,31,274.82c0-41.236,28.243-77.27,67.725-87.216    c0.564-18.364,7.888-35.608,20.768-48.775c13.398-13.697,31.3-21.453,50.406-21.837c2.756-0.022,5.044,2.138,5.1,4.898    s-2.138,5.044-4.898,5.1c-33.862,0.682-61.411,28.903-61.411,62.911c0,0.354,0.016,0.714,0.03,1.071l0.017,0.44    c0.087,2.444-1.605,4.592-4.002,5.079C67.805,203.991,41,236.934,41,274.82c0,37.649,23.388,71.666,55.707,81.18h299.212    C438.027,354.615,471,318.972,471,274.82c0-44.068-35.718-79.92-79.62-79.92c-0.273,0-0.544,0.008-0.814,0.016l-0.509,0.013    c-1.495,0.017-2.915-0.603-3.889-1.729c-0.975-1.127-1.396-2.63-1.148-4.099c0.902-5.37,1.36-10.817,1.36-16.191    c0-38.748-22.909-73.694-58.365-89.031c-2.534-1.096-3.7-4.04-2.604-6.574c1.096-2.534,4.034-3.701,6.574-2.604    c39.118,16.921,64.395,55.47,64.395,98.209c0,4.013-0.231,8.061-0.688,12.092C443.114,187.267,481,226.688,481,274.82    c0,49.61-37.267,89.66-84.841,91.177C396.106,365.999,396.053,366,396,366z"/><path d="M170.87,226H170c-2.761,0-5-2.239-5-5V31c0-2.761,2.239-5,5-5h160c2.762,0,5,2.239,5,5v180c0,2.761-2.238,5-5,5    s-5-2.239-5-5V36H175v182.181c0.549,0.803,0.87,1.773,0.87,2.819C175.87,223.761,173.631,226,170.87,226z"/><path d="M330,246H185c-11.028,0-20-8.972-20-20c0-2.235,0.388-4.474,1.152-6.654C168.979,211.357,176.552,206,185,206h145    c2.762,0,5,2.239,5,5v30C335,243.761,332.762,246,330,246z M185,216c-4.22,0-8.004,2.68-9.417,6.668    c-0.385,1.1-0.583,2.226-0.583,3.332c0,5.514,4.486,10,10,10h140v-20H185z"/><path d="M290,76h-80c-2.761,0-5-2.239-5-5s2.239-5,5-5h80c2.762,0,5,2.239,5,5S292.762,76,290,76z"/><path d="M290,106h-80c-2.761,0-5-2.239-5-5s2.239-5,5-5h80c2.762,0,5,2.239,5,5S292.762,106,290,106z"/><path d="M290,136h-80c-2.761,0-5-2.239-5-5s2.239-5,5-5h80c2.762,0,5,2.239,5,5S292.762,136,290,136z"/></g></g><g id="Layer_1"/></svg>